<svg id="Capa_1" enable-background="new 0 0 512 512" height="512" viewBox="0 0 512 512" width="512" xmlns="http://www.w3.org/2000/svg" xmlns:xlink="http://www.w3.org/1999/xlink"><linearGradient id="SVGID_1_" gradientUnits="userSpaceOnUse" x1="218.5" x2="218.5" y1="512" y2="75"><stop offset="0" stop-color="#ffc2cc"/><stop offset="1" stop-color="#fff2f4"/></linearGradient><linearGradient id="SVGID_2_" gradientUnits="userSpaceOnUse" x1="317" x2="317" y1="390" y2="0"><stop offset="0" stop-color="#fd3a84"/><stop offset="1" stop-color="#ffa68d"/></linearGradient><g><g><g><path d="m407 225c16.816 0 30-13.184 30-30s-13.184-30-30-30h-5.215c-1.084-3.047-2.314-5.991-3.691-8.877l3.311-3.34c12.512-11.824 11.826-31.632.557-42.217-11.613-12.292-31.24-12.047-42.48-.278l-3.604 3.618c-2.9-1.392-5.83-2.622-8.877-3.706v-5.2c0-16.816-13.184-30-30-30s-30 13.184-30 30v5.2c-3.047 1.084-5.977 2.314-8.877 3.706l-3.34-3.369c-11.918-12.42-31.626-11.776-42.188-.527-12.323 11.646-12.091 31.35-.293 42.495l3.604 3.618c-1.377 2.886-2.607 5.83-3.691 8.877h-5.216c-16.816 0-30 13.184-30 30s13.184 30 30 30h5.215c1.084 3.047 2.314 5.991 3.691 8.877l-3.311 3.34c-12.474 11.788-11.776 31.703-.85 41.895 10.493 11.684 29.915 13.38 42.773.586l3.604-3.604c2.871 1.392 5.83 2.622 8.877 3.706v5.2c0 16.816 13.184 30 30 30s30-13.184 30-30v-5.2c3.047-1.084 6.006-2.314 8.877-3.706l3.633 3.633c12.923 12.858 32.661 10.695 41.895.249 12.325-11.647 12.089-31.336.293-42.48l-3.604-3.618c1.377-2.886 2.607-5.83 3.691-8.877h5.216zm-185.42 104.473c-15.176-10.781-28.301-23.921-39.023-39.053-5.385-7.613-16.338-8.464-22.852-1.919l-155.31 155.604c-5.859 5.859-5.859 15.337 0 21.196l42.305 42.305c5.86 5.86 15.343 5.854 21.211.015l155.604-155.296c6.499-6.531 5.716-17.41-1.935-22.852z" fill="url(#SVGID_1_)"/></g></g><g><g><path d="m317 0c-107.701 0-195 87.299-195 195 0 107.699 87.299 195 195 195s195-87.301 195-195c0-107.701-87.299-195-195-195zm90 210h-16.5c-2.1 9.6-5.7 18.3-11.1 26.4l11.699 11.698c6 5.7 6 15.3 0 21-4.891 5.438-14.46 6.543-20.999 0l-11.7-11.701c-8.101 5.402-16.8 9.002-26.4 11.102v16.501c0 8.399-6.599 15-15 15s-15-6.601-15-15v-16.5c-9.6-2.1-18.3-5.7-26.4-11.102l-11.7 11.701c-6.485 6.489-16.059 5.493-20.999 0-6-5.7-6-15.3 0-21l11.698-11.698c-5.4-8.101-9-16.8-11.1-26.4h-16.499c-8.401 0-15-6.601-15-15 0-8.401 6.599-15 15-15h16.5c2.1-9.6 5.7-18.3 11.1-26.4l-11.698-11.7c-6-5.7-6-15.3 0-21 5.698-6 15.298-6 20.999 0l11.7 11.701c8.101-5.4 16.8-9 26.4-11.1v-16.502c0-8.401 6.599-15 15-15s15 6.599 15 15v16.5c9.6 2.1 18.3 5.7 26.4 11.1l11.7-11.701c5.7-6 15.3-6 20.999 0 6 5.7 6 15.3 0 21l-11.7 11.701c5.4 8.101 9 16.8 11.1 26.4h16.5c8.401 0 15 6.599 15 15 0 8.399-6.599 15-15 15zm-90-30c-8.284 0-15 6.716-15 15s6.716 15 15 15 15-6.716 15-15-6.716-15-15-15z" fill="url(#SVGID_2_)"/></g></g></g></svg>