<svg id="Layer_1" enable-background="new 0 0 512.002 512.002" height="512" viewBox="0 0 512.002 512.002" width="512" xmlns="http://www.w3.org/2000/svg"><g><g><path d="m476.002 432.002h-30.001v-362.002c0-16.542-13.458-30-30-30h-30v-10c0-16.542-13.458-30-30-30h-.001c-16.542 0-29.999 13.458-29.999 30v10h-.001-59.999v-10c0-16.542-13.458-30-30-30-16.542 0-30 13.458-30 30v10h-60v-10c0-16.542-13.458-30-30-30-16.542 0-30 13.458-30 30v10h-30.001c-16.542 0-30 13.458-30 30v392.002c0 27.57 22.43 50 50 50h360.001c27.57 0 50-22.43 50-50v-20c.001-5.523-4.477-10-9.999-10zm-130.001-402.002c0-5.514 4.486-10 10-10s10 4.486 10 10v40c0 5.514-4.486 10-10.001 10-5.514 0-9.999-4.486-9.999-10zm-120.001 0c0-5.514 4.486-10 10-10s10 4.486 10 10v40c0 5.514-4.486 10-10 10s-10-4.486-10-10zm-119.999 0c0-5.514 4.486-10 10-10s10 4.486 10 10v40c0 5.514-4.486 10-10 10s-10-4.486-10-10zm-.001 432.002c0 16.542-13.458 30-30 30s-30-13.458-30-30v-322h144.997c5.523 0 10-4.477 10-10s-4.477-10-10-10h-144.997v-50.002c0-5.514 4.486-10 10-10h30v10c0 16.542 13.458 30 30 30s30-13.458 30-30v-10h60v10c0 16.542 13.458 30 30 30s30-13.458 30-30v-10h60 .001v10c0 16.542 13.458 30 30 30s30-13.458 30-30v-10h30c5.514 0 10 4.486 10 10v50.001h-145.003c-5.522 0-10 4.477-10 10s4.478 10 10 10h145.003v292.001h-310.001c-2.652 0-5.196 1.054-7.071 2.929s-2.929 4.419-2.929 7.071zm360.002 0c0 16.542-13.458 30-30 30h-320.025c6.291-8.362 10.023-18.754 10.023-30v-10h340.001v10z"/><path d="m172.416 372.554-8.917 2.39c-5.334 1.429-8.5 6.913-7.071 12.248 1.197 4.468 5.237 7.414 9.653 7.414.857 0 1.728-.111 2.595-.343l27.532-7.378c11.408 4.553 25.437 7.498 42.677 7.498 12.758 0 24.793-2.708 35.666-7.831l28.775 7.71c.867.232 1.737.343 2.594.343 4.415 0 8.456-2.947 9.653-7.414 1.43-5.335-1.736-10.818-7.071-12.248l-12.262-3.286c6.985-6.638 13.063-14.631 18.017-23.85 21.244-39.531 17.942-92.654-8.217-132.19-16.905-25.548-38.745-42.51-63.168-49.053-4.271-1.141-8.73-.551-12.556 1.662-3.828 2.213-6.563 5.784-7.704 10.053-.757 2.833-.749 5.82.025 8.643 4.711 17.706-.854 41.407-8.962 54.104-3.086 4.833-5.554 6.513-6.455 6.853-.804-.545-4.346-3.582-7.812-16.286-1.161-4.261-3.911-7.814-7.745-10.007-3.833-2.192-8.291-2.76-12.55-1.6-4.017 1.094-7.445 3.63-9.65 7.135-7.895 12.527-14.044 24.997-18.277 37.063-12.285 35.024-9.212 69.383 8.43 94.268 3.275 4.621 7.47 9.49 12.8 14.102zm92.398-24.913c-4.375 13.942-13.834 21.012-28.114 21.012-12.29 0-21.582-3.944-26.872-11.406-5.769-8.137-6.608-20.422-2.244-32.864.775-2.21 1.628-4.308 2.604-6.385 10.024 10.171 20.584 8.806 25.221 7.489 11.376-3.226 20.086-14.069 24.22-25.704 6.822 12.083 10.211 31.842 5.185 47.858zm-94.755-76.836c3.012-8.588 7.167-17.474 12.384-26.499 2.538 7.059 5.563 12.44 9.167 16.333 5.815 6.281 13.147 8.625 20.646 6.602 15.507-4.187 23.945-25.195 26.854-34.033 5.081-15.442 6.515-31.708 4.124-45.594 21.811 7.813 37 25.245 46.126 39.04 22.213 33.572 25.139 78.455 7.279 111.686-3.892 7.241-8.562 13.468-13.897 18.611.408-1.085.798-2.188 1.154-3.322 8.919-28.422-.596-65.423-20.36-79.181-4.198-2.923-9.81-3.292-14.294-.937-4.385 2.302-6.99 6.708-6.968 11.788.038 8.979-6.909 19.412-12.321 20.946-3.364.957-6.708-3.158-8.919-6.777-2.524-4.133-7.023-6.72-11.74-6.751-.03 0-.059 0-.089 0-4.614 0-8.879 2.404-11.418 6.439-3.923 6.226-6.807 12.139-9.076 18.607-5.25 14.969-5.201 29.791-.114 42.085-4.874-3.662-9.128-7.974-12.665-12.963-13.843-19.525-15.984-47.255-5.873-76.08z"/><path d="m236.001 140.001c5.523 0 10-4.477 10-10s-4.477-10-10-10h-.007c-5.523 0-9.996 4.477-9.996 10s4.48 10 10.003 10z"/></g></g></svg>