<svg id="Layer_5" enable-background="new 0 0 64 64" height="512" viewBox="0 0 64 64" width="512" xmlns="http://www.w3.org/2000/svg"><g><path d="m57.864 35.288c1.519-.882 3.136-2.562 3.136-5.288 0-3.096-1.393-4.305-2.512-5.275-.896-.779-1.488-1.292-1.488-2.725v-1h-1c-.014 0-.515.014-1.155.282-.462-2.765-2.007-4.707-3.845-6.013v-5.269c0-2.757-2.243-5-5-5h-1v-1c0-1.654-1.346-3-3-3h-2c-1.654 0-3 1.346-3 3v1h-7v-1c0-1.654-1.346-3-3-3h-2c-1.654 0-3 1.346-3 3v1h-7v-1c0-1.654-1.346-3-3-3h-2c-1.654 0-3 1.346-3 3v1h-1c-2.757 0-5 2.243-5 5v32c0 2.757 2.243 5 5 5h25c0 8.822 7.178 16 16 16s16-7.178 16-16c0-4.627-1.986-8.788-5.136-11.712zm3.085 12.712c-.221 3.108-1.455 5.934-3.381 8.154l-2.79-2.79-1.414 1.414 2.79 2.79c-2.22 1.926-5.047 3.16-8.154 3.381v-3.949h-2v3.949c-3.108-.221-5.934-1.455-8.154-3.381l2.79-2.79-1.414-1.414-2.79 2.79c-1.926-2.22-3.16-5.047-3.381-8.154h3.949v-2h-3.949c.221-3.108 1.455-5.934 3.381-8.154l2.79 2.79 1.414-1.414-2.79-2.79c2.22-1.926 5.047-3.16 8.154-3.381v3.949h2v-3.949c3.108.221 5.934 1.455 8.154 3.381l-2.79 2.79 1.414 1.414 2.79-2.79c1.926 2.22 3.16 5.047 3.381 8.154h-3.949v2zm-39.949-19h-6v-4h6zm2-4h6v4h-6zm-2 6v4h-6v-4zm2 0h6v4h-6zm8 0h2.085c.3 1.897 1.423 3.195 2.596 4h-4.681zm2.058-2h-2.058v-4h4.199c-.915.815-1.903 1.876-2.141 4zm5.942-7.958v-2.042h1.554c-.554.526-1.096 1.18-1.554 2.042zm-2-.042v1c0 .397-.049.719-.134 1h-5.866v-4h6zm-8 2h-6v-4h6zm-8 0h-6v-4h6zm-8 0h-6v-4h6zm-6 2h6v4h-6zm0 6h6v4h-6zm0 6h6v4h-6zm8 0h6v4h-6zm8 0h6v4h-6zm8 0h3.53c-.967 1.204-1.762 2.549-2.352 4h-1.178zm21.993-14.126c-.569.888-.993 2.191-.993 4.126h2c0-2.198.609-3.189 1.158-3.635.359 1.429 1.262 2.212 2.02 2.869.977.85 1.822 1.582 1.822 3.766 0 2.513-1.979 3.557-2.848 3.896-2.596-1.819-5.748-2.896-9.152-2.896s-6.556 1.077-9.152 2.896c-.869-.339-2.848-1.383-2.848-3.896 0-2.184.845-2.916 1.822-3.766.758-.657 1.659-1.439 2.019-2.867.552.448 1.159 1.44 1.159 3.633h2c0-2.385-.642-3.812-1.411-4.678.62-1.378 1.515-2.073 2.457-2.801 1.202-.928 2.543-1.962 2.875-4.341 2.177.501 6.996 2.231 7.072 7.694zm-13.993-18.874c0-.552.448-1 1-1h2c.552 0 1 .448 1 1v4c0 .552-.448 1-1 1h-2c-.552 0-1-.448-1-1zm-15 0c0-.552.448-1 1-1h2c.552 0 1 .448 1 1v4c0 .552-.448 1-1 1h-2c-.552 0-1-.448-1-1zm-15 0c0-.552.448-1 1-1h2c.552 0 1 .448 1 1v4c0 .552-.448 1-1 1h-2c-.552 0-1-.448-1-1zm-3 3h1v1c0 1.654 1.346 3 3 3h2c1.654 0 3-1.346 3-3v-1h7v1c0 1.654 1.346 3 3 3h2c1.654 0 3-1.346 3-3v-1h7v1c0 1.654 1.346 3 3 3h2c1.654 0 3-1.346 3-3v-1h1c1.654 0 3 1.346 3 3v3h-46v-3c0-1.654 1.346-3 3-3zm0 38c-1.654 0-3-1.346-3-3v-27h40.92c-.142.907-.489 1.495-.988 2h-37.932v26h26.527c-.169.653-.302 1.318-.388 2z"/><path d="m50 47c0-1.302-.839-2.402-2-2.816v-5.184h-2v5.184c-1.161.414-2 1.514-2 2.816 0 1.654 1.346 3 3 3 .462 0 .894-.113 1.285-.301l2.008 2.008 1.414-1.414-2.008-2.008c.188-.391.301-.823.301-1.285zm-3 1c-.552 0-1-.448-1-1s.448-1 1-1 1 .448 1 1-.448 1-1 1z"/></g></svg>