<svg height="512pt" viewBox="0 0 512 512" width="512pt" xmlns="http://www.w3.org/2000/svg"><path d="m256 44.136719c-117.007812 0-211.863281 94.855469-211.863281 211.863281s94.855469 211.863281 211.863281 211.863281 211.863281-94.855469 211.863281-211.863281c-.15625-116.945312-94.917969-211.707031-211.863281-211.863281zm-26.484375 149.539062-35.308594-30.101562v145.390625h-35.308593v-145.390625l-35.3125 30.101562v-38.929687l54.554687-48.816406 51.375 48.816406zm158.898437 159.425781-70.621093 61.796876-70.621094-61.796876v-52.964843l44.136719 38.667969v-224.046876h52.96875v224.046876l44.136718-38.667969zm0 0"/><path d="m256 0c-141.386719 0-256 114.613281-256 256s114.613281 256 256 256 256-114.613281 256-256c.011719-67.898438-26.957031-133.019531-74.96875-181.03125s-113.132812-74.9804688-181.03125-74.96875zm0 485.515625c-126.757812 0-229.515625-102.757813-229.515625-229.515625s102.757813-229.515625 229.515625-229.515625 229.515625 102.757813 229.515625 229.515625c-.121094 126.707031-102.808594 229.394531-229.515625 229.515625zm0 0"/></svg>