<svg id="Capa_1" enable-background="new 0 0 512 512" height="512" viewBox="0 0 512 512" width="512" xmlns="http://www.w3.org/2000/svg"><g><path d="m364.122 36.43h-139.794c-4.143 0-7.5 3.357-7.5 7.5s3.357 7.5 7.5 7.5h139.794c6.668 0 12.093 5.425 12.093 12.093v28.491h-240.43v-28.492c0-6.668 5.425-12.093 12.093-12.093h41.927c4.143 0 7.5-3.357 7.5-7.5s-3.357-7.5-7.5-7.5h-41.927c-14.939 0-27.093 12.153-27.093 27.093v384.955c0 14.939 12.153 27.093 27.093 27.093h49.427c4.143 0 7.5-3.357 7.5-7.5s-3.357-7.5-7.5-7.5h-49.427c-6.668 0-12.093-5.425-12.093-12.093v-28.491h240.43v28.491c0 6.668-5.425 12.093-12.093 12.093h-132.295c-4.143 0-7.5 3.357-7.5 7.5s3.357 7.5 7.5 7.5h132.295c14.939 0 27.093-12.153 27.093-27.093v-236.189c0-4.143-3.357-7.5-7.5-7.5s-7.5 3.357-7.5 7.5v192.698h-240.43v-297.972h240.43v70.752c0 4.143 3.357 7.5 7.5 7.5s7.5-3.357 7.5-7.5v-114.244c0-14.939-12.153-27.092-27.093-27.092z"/><path d="m432.838 83.51c-12.236 0-22.191 9.955-22.191 22.191v300.598c0 12.236 9.955 22.191 22.191 22.191s22.191-9.955 22.191-22.191v-300.598c0-12.236-9.955-22.191-22.191-22.191zm7.191 322.789c0 3.966-3.226 7.191-7.191 7.191s-7.191-3.226-7.191-7.191v-300.598c0-3.966 3.226-7.191 7.191-7.191s7.191 3.226 7.191 7.191z"/><path d="m489.809 181.473c-12.236 0-22.191 9.955-22.191 22.191v104.672c0 12.236 9.955 22.191 22.191 22.191s22.191-9.955 22.191-22.191v-104.672c0-12.236-9.955-22.191-22.191-22.191zm7.191 126.863c0 3.966-3.226 7.191-7.191 7.191s-7.191-3.226-7.191-7.191v-104.672c0-3.966 3.226-7.191 7.191-7.191s7.191 3.226 7.191 7.191z"/><path d="m79.162 83.51c-12.236 0-22.191 9.955-22.191 22.191v300.598c0 12.236 9.955 22.191 22.191 22.191s22.191-9.955 22.191-22.191v-300.598c.001-12.236-9.955-22.191-22.191-22.191zm7.192 322.789c0 3.966-3.226 7.191-7.191 7.191s-7.191-3.226-7.191-7.191v-300.598c0-3.966 3.226-7.191 7.191-7.191s7.191 3.226 7.191 7.191z"/><path d="m22.191 181.473c-12.236 0-22.191 9.955-22.191 22.191v104.672c0 12.236 9.955 22.191 22.191 22.191s22.191-9.955 22.191-22.191v-104.672c.001-12.236-9.954-22.191-22.191-22.191zm7.192 126.863c0 3.966-3.226 7.191-7.191 7.191s-7.192-3.225-7.192-7.191v-104.672c0-3.966 3.226-7.191 7.191-7.191s7.191 3.226 7.191 7.191v104.672z"/></g></svg>